<?xml version="1.0" encoding="utf-8"?>
<!-- Generator: Adobe Illustrator 27.5.0, SVG Export Plug-In . SVG Version: 6.00 Build 0)  -->
<svg version="1.1" id="Calque_1" xmlns="http://www.w3.org/2000/svg" xmlns:xlink="http://www.w3.org/1999/xlink" x="0px" y="0px"
	 viewBox="0 0 90 67" style="enable-background:new 0 0 90 67;" xml:space="preserve">
<style type="text/css">
	.st0{filter:url(#Adobe_OpacityMaskFilter);}
	.st1{fill-rule:evenodd;clip-rule:evenodd;fill:#FFFFFF;}
	.st2{mask:url(#mask-2_00000053514881145928178630000008512713080032828861_);fill-rule:evenodd;clip-rule:evenodd;fill:#FFFFFF;}
</style>
<g id="Symbols">
	<g id="components_x2F_footer_x2F_desktop" transform="translate(-399.000000, -379.000000)">
		<g id="Group-3" transform="translate(85.000000, 379.000000)">
			<g id="nick" transform="translate(314.000000, 0.000000)">
				<g id="Clip-2">
				</g>
				<defs>
					<filter id="Adobe_OpacityMaskFilter" filterUnits="userSpaceOnUse" x="0" y="0" width="89.7" height="66.3">
						<feColorMatrix  type="matrix" values="1 0 0 0 0  0 1 0 0 0  0 0 1 0 0  0 0 0 1 0"/>
					</filter>
				</defs>
				
					<mask maskUnits="userSpaceOnUse" x="0" y="0" width="89.7" height="66.3" id="mask-2_00000053514881145928178630000008512713080032828861_">
					<g class="st0">
						<polygon id="path-1_00000019653308790944014140000012006811886776355464_" class="st1" points="0,0 89.7,0 89.7,66.3 0,66.3 
													"/>
					</g>
				</mask>
				<path id="Fill-1" class="st2" d="M60.4,40.2c0,1.3-1.5,1.9-2.5,2.4c-1.3,0.5-1.6-1.1-2.3-1.7L53.1,37l-0.2,0.4
					c-0.1,1.4-0.2,2.8-0.6,4.1c-0.6,0.6-1.7,0.2-2.5,0.2c-0.5-0.2-1.3-0.1-1.5-0.8l2-13.8c0.2-0.8,0.2-1.6,0.6-2.2
					c1.1-0.4,2.7-0.4,3.7,0.2c0.4,1.1-0.2,2.2-0.2,3.4c-0.1,0.6-0.3,1.2-0.4,1.9l0.2,0.2c2.5-1.3,3-4.1,3.9-6.4
					c0.6-0.4,1.5-0.1,2.1-0.1c0.6,0.1,1.2,0.3,1.5,0.8c-0.6,3.6-2.1,7.1-5.5,9.2C57.5,36.2,59.2,38.1,60.4,40.2L60.4,40.2z
					 M44.4,29.9c-1.4,1.6-1.6,3.8-1.9,5.9c0.1,0.9-0.2,2,0.6,2.6c1.4-0.1,0.8-1.7,1.7-2.3c0.8-0.6,2.1-0.8,3-0.3
					c0.5,0.7,0.2,1.7,0.1,2.5c-0.5,1.8-1.6,3.7-3.6,4.5c-1,0.4-2.2,0.6-3.3,0.3c-3.2-1.7-3-5.5-2.8-8.9c0.6-3.4,2.3-7.5,6.2-8.4
					c1.5-0.4,3.3,0,4,1.5c0.4,1.2,0.6,2.8-0.1,3.9c-0.8,0.8-2.1,0.9-3.1,0.6C44.5,31.3,45.7,29.8,44.4,29.9L44.4,29.9z M38.1,29.7
					l-2,13.7c-1.1,0.9-3,0.6-4.2,0c-0.7-0.7-0.1-1.7-0.2-2.5c0.7-4.4,1.2-8.9,2.3-13.3c0.9-0.9,2.5-0.7,3.7-0.4
					c0.2,0.2,0.6,0.3,0.6,0.7L38.1,29.7z M30.5,33.9l-1.3,8.7c0,0.6,0.6,1.1,0.1,1.7c-1.2,0.6-2.9,0.5-4.1,0l-0.5-0.8
					c-1.1-3.5-2.1-7-3.2-10.4l-0.2,0.4L20,45.1c-0.1,0.5-0.6,0.7-1,0.8c-1.2,0.1-2.8,0.3-3.5-0.8l-0.1-0.8
					c0.6-6.5,1.5-12.9,2.7-19.1c0.1-0.4,0.3-0.9,0.8-1c1.6-0.2,3.2,0.2,4.4,1c1.2,2.3,2,4.7,2.7,7.1l0.2-0.2l1.4-8.1
					c0.1-0.5,0.5-0.9,1-1c1.2,0,2.9-0.4,3.5,0.7C31.6,27.2,30.9,30.5,30.5,33.9L30.5,33.9z M67.4,46.6c-0.6-0.3-2.8-1.4-3.2-1.9
					c-0.4-0.4-1.1-1.2-1.3-2c-0.5-2.4,1.9-4.7,2.7-6.8c1-2.8-1.2-4.6-1-7.3c0.1-1.1,0.4-2.3,0.5-3.4c0.1-0.9-0.8-2.6-1-3.5
					c-0.4-2,1.3-3.1,2.5-4.4c0.5-0.5,0.8-1.8,0-2.2c-0.7-0.3-1.9,0.5-2.4,0.9c-1.9,1.4-3,3.3-4.7,4.6c-0.1,0-0.2,0-0.3,0
					c-0.5-0.7,0.1-1.8-0.4-2.6c0-0.3-1-0.4-1.6,0.1c-0.3,0.2-1.7,0.8-2,0.6c-0.8-0.6-1.7-1.2-1.6-2.7c0.2-1.3,0.2-2.7,0.8-3.8
					c0-0.5-0.2-0.9-0.6-0.8c-0.4,0.2-0.8,0.5-0.8,1.1c0.2,0.9-0.3,1.6-0.8,2.2c-0.6,0.7-1.1,0.4-1.3-0.3c-0.8-0.5-0.7-1.8-0.7-3.1
					c-0.1-0.1-0.3,0-0.3-0.3c0.3-0.4-0.3-0.2-0.1-0.6c-0.1-0.7-0.5-0.8-0.9-1.1c-3.2-2-5.8,0.9-6.1,3.9c-0.2,0-0.3-0.1-0.5-0.2
					c-0.4-0.4-0.1-0.4-1.1-0.6c-1-0.1-1.4-0.5-2-0.4c-0.6,0.1-1.4,0.4-2,0.6c-0.6,0.2-0.7,0-0.9,0.4c-0.2,0.5-0.3,1.3-1,1.3
					c-0.7,0-1-0.6-1.4-1.2c-0.5-0.6-1.1-0.8-1.2-1.1c-0.1-0.2,0-0.5,0-1.1c0-0.6-0.1-1.1,0.1-1.4c0.2-0.3,0.2-0.5,0-1.1
					c-0.2-0.6-0.4-1.3-0.3-2c0.1-0.7,0.4-1-0.1-1.4c-0.5-0.4-1.1-0.3-1.1-0.3s-1.2,0.2-1.5,0.7c-0.2,0.5-0.1,1,0.2,1.9
					c0.3,0.9,0.7,1.8,0.7,1.8l-0.2,2.2c0,0-0.9,0.4-1.8,1.1l-0.9,0.6c0,0-1.6,3.1-2.5,3.4c-1.5-0.5-3.1,0.6-2.8,1.3
					c0.5,0.3,0.6,0.9,0.6,1.4c-0.4,0.2-0.8,0.3-1.2,0.3c-1.7,0-4.5,0.4-5.5,2c-0.1,0.2-0.2,0.3-0.3,0.5c-0.9-0.8,0-0.7-1.1-0.3
					c-0.4,0.1-1.8-1.9-2.2-2.2c-0.9-0.8-2.3-1.9-3.5-2c-1.7-0.2-3.7,1.8-2.8,3.7c0.7,1.3,1.8,0,3,0.5c2.7,1.2,2.6,4.2,3.2,6.5
					c0.3,1.3,1.3,2.4,1.3,3.6c0,0.4-0.1,0.8-0.3,1.2c-0.8,1.6-2.3,2.3-2.5,4.4c-0.2,2.1,0.9,3.9,1.9,5.6c0.9,1.6,0.8,3.6,1.8,5.1
					c1.2,1.7,3.5,3,4.3,4.8c1.5,3.4,1.9,0.2-1,5.5c-0.8,1.5-1.6,2.3-1.6,2.3s-1.9,1.9-1.5,3.5c0.4,1.6,1.9,2.4,3.5,2.2
					c1.6-0.2,2.5-2.8,2.5-2.8s0.3-3.5,0.2-4c-0.1-0.5-0.2-1.8-0.2-1.8l0.6-1.2c0,0,1.1-0.4,1.5-0.9c0.4-0.5,1-1.3,1-1.3
					s1.2-1.3,1.7-1.2c0.5,0,1.4-0.6,1.4-0.6l1-1.1c0,0,1.2-0.2,2.2,0.4c1,0.6,1.5,1,2.2,0.9c0.7-0.1,2.3-0.2,2.3-0.2
					s0.6-0.5,1.2-0.2c0.7,0.2,1.5,0.5,2,1.2c0,0,0.1,0.1,0.1,0.2c0,0,0,0,0,0.1c0,0,0,0.1,0.1,0.1c0,0,0,0,0,0.1
					c0,0.1,0,0.1,0.1,0.2c0,0,0,0,0,0.1c0,0.1,0.1,0.2,0.1,0.3c0,0,0,0.1,0,0.1c0,0.1,0,0.2,0.1,0.3c0,0,0,0.1,0,0.1
					c0,0.1,0,0.2,0.1,0.3c0,0.1,0.1,0.3,0.1,0.4c0,0.1,0.1,0.2,0.1,0.3c0,0,0,0.1,0,0.1c0,0.1,0.1,0.2,0.1,0.3c0,0,0,0.1,0,0.1
					c0,0.1,0.1,0.2,0.1,0.3c0,0,0,0,0,0c0,0.1,0.1,0.2,0.1,0.4c0,0,0,0,0,0.1c0,0.1,0.1,0.2,0.1,0.3c0,0,0,0.1,0,0.1
					c0,0,0,0.1,0,0.1c0.2,0.4,0.3,0.7,0.5,0.9c0.8,0.8,2.1,1.4,3.2,1.5c1,0.1,1.7,0,3.1-1.3c1.3-1.3,1.1-2.2,1.9-2.3
					c0.9-0.1,1.4-0.4,2.6,0c1.2,0.5,3.5,1.5,4,2.3c0.5,0.7,1.2,0.8,1.2,0.8s1-1.1,0-2.1c-1-1-3.5-2.2-3.2-3.4c0.3-1.2,0.9-2.4,1.8-3
					c0.9-0.6,1.5-0.9,2.4-1.4c0.9-0.4,1.6-0.9,1.6-0.9l1.1,1l1.4,0.5c0,0,0.7-0.1-0.1-1.2c-0.8-1.1-0.5-0.4-1.1-1.7l-0.6-1.3
					c0,0,2.8-0.5,3.7-0.4c0.9,0.1,2,0.5,2,0.5l1.6,1.2l1.3,1c0,0,0.1,1.1,1,1c0,0,0.6,0.3,0.9,0.3c0.3,0,0.9-0.5,0.9-0.5L69.6,48
					C69.6,48,67.9,46.9,67.4,46.6L67.4,46.6z M76.2,50.2c-0.2-0.2-0.7-0.6-0.7-0.6L75.1,50c0,0-0.1,0.2-1.1,0
					c-1-0.1-1.3-0.2-1.3-0.2s0.3,0.4,0.4,0.5c0.1,0.1,0.2,0.5,0.5,0.6c0.2,0.1,0.7,0.3,1.6,0.6c0.9,0.3,1.3,0.5,1.3,0.5
					s0.4-0.9,0.4-1C76.9,51,76.4,50.5,76.2,50.2L76.2,50.2z M89.5,56.1c-0.3-0.6-0.4-1.2-1.8-1.7C86.3,54,86.1,54,85,53.9
					c-1.1-0.1-1.6-0.1-2.7-0.3c-1.1-0.2-1.1-0.4-1.9-0.6c-0.8-0.2-1.1-0.3-1.5-0.4c-0.4,0-0.9-0.2-1.1,0c-0.1,0.2,0.2,0.3,0.2,0.3
					s1.9,1.2,2.4,1.3c0.5,0.1,2.9,1.1,3.3,1.5c0.4,0.4,3.3,1.5,4,1.5c0.6,0,0.8,0.1,1.3-0.4C89.6,56.4,89.8,56.7,89.5,56.1
					L89.5,56.1z M80.1,10.2c0.9-0.2,1-0.7,1.2-1.1c0.2-0.4,0.1-0.2-0.2-0.6c-0.3-0.4-0.4-0.4-0.8-0.4c-0.4,0-2.3,0.6-2.6,0.9
					c-0.3,0.3-1.8,0.9-2.2,0.9c-0.3,0.1-1.6,0.8-1.6,0.8s-0.2,0.1-0.1,0.2c0.1,0.2,0.4,0.1,0.7,0.1c0.3,0,0.4-0.1,0.9-0.2
					c0.5-0.1,0.5-0.2,1.2-0.3c0.7-0.1,1-0.1,1.7-0.1C79.1,10.4,79.2,10.4,80.1,10.2L80.1,10.2z M69.8,14.3l0.3,0.3
					c0,0,0.3-0.3,0.4-0.5c0.1-0.2,0.3-0.6,0.3-0.7c0-0.1-0.4-0.6-0.4-0.6s-0.3,0.2-0.8,0.5c-0.5,0.3-0.8,0.5-0.9,0.6
					c-0.1,0.1-0.2,0.4-0.2,0.5c0,0.1-0.2,0.4-0.2,0.4s0.2-0.1,0.8-0.3C69.7,14.2,69.8,14.3,69.8,14.3L69.8,14.3z M52.6,6.8
					c0.7-0.5,1.2-1.4,1.8-1.7c0.1-0.7,0.8-0.6,1-1.3C56,2.1,55.7,0.7,54.7,0c-1.1-0.2-2.9,0.4-4.2,1.7c-0.8,1-0.7,1.8-0.9,2.8
					c0,1.2,0.8,1.7,1.4,2.4C51.4,7.2,52.1,6.9,52.6,6.8L52.6,6.8z M3.2,13.5c-0.5-0.1-1.2-0.1-1.5-0.1c-0.3,0-0.9,0.9-0.9,1.1
					c0,0.2-0.1,0.9-0.3,1c-0.3,0.1-0.5,0.3-0.3,0.8C0.2,16.7,0.9,17,0.9,17s0.6,0.5,1.3,0.6C2.9,17.8,3.3,18,4,17.2
					c0.7-0.7,0.7-1.2,0.8-1.7C5,15,4.4,14.2,4.4,14.2S3.6,13.6,3.2,13.5L3.2,13.5z M66.1,54.1c-1.2-0.8-1.3-0.6-1.9-1.1
					c-0.6-0.4-1.1-0.8-1.3-1.1c-0.2-0.3-0.7-0.8-0.7-0.8c-0.2,0-0.7,0.3-0.5,0.6c0.2,0.3,0.6,0.6,1,0.9c0.3,0.3,1,1,1.2,1.1
					c0.2,0.1,1.1,0.9,1.7,1.6c0.6,0.7,1,1.1,1.7,1c0.6-0.1,1.5-0.4,1-0.9C67.8,55,67.3,55,66.1,54.1L66.1,54.1z"/>
			</g>
		</g>
	</g>
</g>
</svg>
